<?xml version="1.0" standalone="no"?>
<!DOCTYPE svg PUBLIC "-//W3C//DTD SVG 20010904//EN"
 "http://www.w3.org/TR/2001/REC-SVG-20010904/DTD/svg10.dtd">
<svg version="1.0" xmlns="http://www.w3.org/2000/svg"
 width="32.000000pt" height="32.000000pt" viewBox="0 0 32.000000 32.000000"
 preserveAspectRatio="xMidYMid meet">

  <g transform="translate(0.000000,32.000000) scale(0.100000,-0.100000)"
  fill="#000000" stroke="none">
  <path d="M120 308 c-94 -26 -141 -143 -90 -225 80 -132 280 -79 282 76 1 99
  -97 175 -192 149z m80 -83 c0 -8 -4 -15 -10 -15 -5 0 -10 -7 -10 -15 0 -8 6
  -15 14 -15 9 0 12 -7 9 -20 -3 -11 -9 -20 -14 -20 -5 0 -9 -13 -9 -30 0 -23
  -4 -30 -20 -30 -15 0 -20 7 -20 29 0 16 -6 31 -15 35 -8 3 -15 12 -15 21 0 8
  7 15 15 15 9 0 15 9 15 23 0 13 3 27 7 30 13 13 53 7 53 -8z"/>
  </g>
</svg>
