<?xml version="1.0" standalone="no"?>
<!DOCTYPE svg PUBLIC "-//W3C//DTD SVG 20010904//EN"
 "http://www.w3.org/TR/2001/REC-SVG-20010904/DTD/svg10.dtd">
<svg version="1.0" xmlns="http://www.w3.org/2000/svg"
 width="32.000000pt" height="32.000000pt" viewBox="0 0 32.000000 32.000000"
 preserveAspectRatio="xMidYMid meet">

<g transform="translate(0.000000,32.000000) scale(0.100000,-0.100000)"
fill="#000000" stroke="none">
<path d="M120 308 c-94 -26 -141 -143 -90 -225 80 -132 280 -79 282 76 1 99
-97 175 -192 149z m108 -80 c7 -7 12 -37 12 -68 0 -31 -5 -61 -12 -68 -16 -16
-120 -16 -136 0 -16 16 -16 120 0 136 16 16 120 16 136 0z"/>
<path d="M112 208 c-16 -16 -16 -80 0 -96 16 -16 80 -16 96 0 15 15 16 78 1
78 -6 0 -8 -8 -4 -19 6 -20 -24 -61 -45 -61 -13 0 -50 37 -50 50 0 21 41 51
61 45 11 -4 19 -2 19 4 0 15 -63 14 -78 -1z"/>
<path d="M144 169 c-10 -17 13 -36 27 -22 12 12 4 33 -11 33 -5 0 -12 -5 -16
-11z"/>
</g>
</svg>
