<?xml version="1.0" standalone="no"?>
<!DOCTYPE svg PUBLIC "-//W3C//DTD SVG 20010904//EN"
 "http://www.w3.org/TR/2001/REC-SVG-20010904/DTD/svg10.dtd">
<svg version="1.0" xmlns="http://www.w3.org/2000/svg"
 width="36.000000pt" height="32.000000pt" viewBox="0 0 36.000000 32.000000"
 preserveAspectRatio="xMidYMid meet">

<g transform="translate(0.000000,32.000000) scale(0.100000,-0.100000)"
fill="#000000" stroke="none">
<path d="M110 291 c-55 -29 -75 -64 -75 -131 0 -68 21 -104 76 -133 43 -23
119 -18 157 10 42 30 64 81 59 134 -9 111 -121 172 -217 120z m160 -75 c0 -8
-4 -18 -10 -21 -5 -3 -10 -17 -10 -31 0 -14 -11 -36 -25 -49 -20 -21 -34 -25
-80 -25 -30 0 -55 5 -55 10 0 6 9 10 20 10 19 0 19 1 1 30 -10 17 -16 41 -13
55 5 29 5 29 41 11 25 -13 28 -13 39 5 15 24 92 28 92 5z"/>
</g>
</svg>
